<?xml version="1.0" encoding="UTF-8"?><svg id="Layer_1" xmlns="http://www.w3.org/2000/svg" xmlns:xlink="http://www.w3.org/1999/xlink" viewBox="0 0 987.2519934 191.57582935"><defs><style>.cls-1{fill:url(#linear-gradient);}.cls-1,.cls-2,.cls-3,.cls-4{stroke-width:0px;}.cls-2{fill:url(#linear-gradient-2);}.cls-3{fill:#58595b;}.cls-4{fill:#231f20;}</style><linearGradient id="linear-gradient" x1="324.78576966" y1="120.17020599" x2="368.88399385" y2="120.17020599" gradientTransform="translate(399.03547481 265.74284049) rotate(-60)" gradientUnits="userSpaceOnUse"><stop offset="0" stop-color="#6d6e71"/><stop offset=".26146397" stop-color="#939598"/><stop offset=".49453367" stop-color="#6d6e71"/><stop offset=".7418005" stop-color="#808285"/><stop offset="1" stop-color="#6d6e71"/></linearGradient><linearGradient id="linear-gradient-2" x1="551.27480274" y1="-276.5408111" x2="595.37302694" y2="-276.5408111" gradientTransform="translate(325.25960441 -332.783145) rotate(60.00006541)" xlink:href="#linear-gradient"/></defs><path class="cls-3" d="m952.94644287,59.69867142v9.33629112c-1.47172846-1.68669346-3.0415137-3.28365986-4.82714075-4.68217455-2.64446413-2.06810656-5.68875439-3.67676378-9.13637805-4.82597167-3.44762365-1.1480388-7.24012658-1.72439637-11.37750878-1.72439637-7.92988513,0-14.91164453,2.04121767-20.94527819,6.12014576-6.03363367,4.08009717-10.74737343,9.71273561-14.13537389,16.893239-3.3915077,7.18401063-5.08550793,15.48800209-5.08550793,24.9108053,0,9.30823314,1.72322729,17.55610865,5.17085094,24.73778112,3.44762365,7.18284155,8.15902526,12.81547999,14.13654297,16.893239,5.97401047,4.08126625,12.81314183,6.12014576,20.51388683,6.12014576,4.1373822,0,7.92988513-.60324646,11.37750878-1.80973938s6.55036804-2.8443772,9.30940223-4.91365284c1.49160286-1.11851947,2.8642516-2.36505346,4.1373822-3.71914301v8.89116304h35.16716418V59.69867142h-34.30555053Zm-12.59379277,48.47658143c1.06941802.61742158,2.3631537.47903147,3.2763531-.24258457l8.25255184,10.43742049-13.16532787-1.92810896c.16820171-1.15169218-.35876213-2.34137954-1.42818014-2.95880112-1.40012217-.80827426-3.19057169-.32865826-3.99884595,1.07161005-.8084204,1.40012217-.32865826,3.19057169,1.07146391,3.99899209.12538407.07233697.25661356.12231523.38725851.1743394l-4.9155526,12.37210554-4.91569873-12.37298235c.59184791-.23454713,1.11603518-.65088656,1.45901469-1.24507263.8084204-1.40012217.32865826-3.19057169-1.07146391-3.99899209-1.40026831-.80827426-3.19071782-.32865826-3.99899209,1.07161005-.34312565.59403994-.4414747,1.25617891-.34867879,1.88602199l-13.17321917,1.92927804,8.25678976-10.44297363c.11033214.08709663.21920293.17580075.344587.24813771,1.40012217.8084204,3.19057169.32865826,3.99899209-1.07146391s.32865826-3.19057169-1.07161005-3.99899209c-1.06927188-.61742158-2.36300757-.47888533-3.2763531.24258457l-8.25240571-10.43742049,13.16532787,1.92810896c-.16820171,1.15183832.35861599,2.34137954,1.42803401,2.95880112,1.40012217.8084204,3.19057169.32865826,3.99899209-1.07146391.8084204-1.40026831.32865826-3.19057169-1.07161005-3.99899209-.12523794-.07233697-.25646743-.12246137-.38711237-.1743394l4.91540646-12.37210554,4.91569873,12.37254394c-.59170177.23469327-1.1157429.65088656-1.45857628,1.2449265-.8084204,1.40012217-.32865826,3.19057169,1.07146391,3.99899209,1.40012217.80827426,3.19057169.32865826,3.99899209-1.07161005.34297951-.5938938.44132856-1.25588664.34882493-1.88558359l13.17278077-1.92927804-8.2569359,10.44297363c-.11033214-.08709663-.21920293-.17580075-.344587-.24813771-1.40012217-.8084204-3.19057169-.32865826-3.99884595,1.07161005-.8084204,1.40012217-.32865826,3.19057169,1.07146391,3.99884595Z"/><path class="cls-3" d="m932.27136882,101.41547295c-2.33304983-1.34707506-5.31654782-.54756891-6.66362288,1.78548092-1.34692893,2.33319597-.54756891,5.31654782,1.78562705,6.66362288s5.31654782.54771505,6.66362288-1.78548092.54756891-5.31654782-1.78562705-6.66362288Z"/><path class="cls-4" d="m37.23527074,151.92640369V62.97443997H0v-31.71954052h112.74161911v31.71954052h-38.26990856v88.95196372h-37.23643982Z"/><path class="cls-3" d="m229.79013735,151.92640369V24.35965214h34.99414v127.56675155h-34.99414Z"/><path class="cls-3" d="m288.91764293,151.92640369V24.35965214h34.99414v127.56675155h-34.99414Z"/><path class="cls-3" d="m354.25063728,191.57582935l22.92804175-54.12967882.34487927,14.13537389-43.27007348-91.882853h38.9596671l12.75702588,30.6849027c1.37951709,3.21848353,2.55678295,6.26511196,3.53413574,9.13637805.97501462,2.87477334,1.69400023,5.57652249,2.15461865,8.10290931l-3.44762365,3.10274438c.45828026-1.26377795,1.1480388-3.24537242,2.06810656-5.94712158.91889867-2.69941099,1.9535365-5.83138243,3.10391346-9.39591431l12.06726733-35.68389855h38.9596671l-40.1673291,92.22773228-16.20348045,39.64942565h-33.78881616Z"/><path class="cls-4" d="m519.39403159,151.92640369V31.25489945h33.27091271l55.50919591,76.71284129-7.92988513-2.41415492c-.57635757-4.59449337-1.06386488-8.6184746-1.4648601-12.06726733-.40450247-3.44762365-.74938174-6.63688012-1.03463782-9.56660033-.28759424-2.93088929-.51673437-5.83255151-.68975855-8.70615577-.1718551-2.87126609-.25836718-6.03363367-.25836718-9.48125732V31.25489945h35.85692272v120.67150424h-33.61579199l-61.1979503-84.46970224,13.9635188,4.1373822c.5740194,4.25312135,1.06152671,7.95911219,1.46602918,11.11797252.40099522,3.16236758.71547836,6.06402981.94812573,8.70615577.22797105,2.64446413.43022228,5.25736303.60324646,7.84337304.1718551,2.58601001.28525608,5.45961426.34487927,8.61964368.05611595,3.16236758.08534301,6.86835842.08534301,11.1191416v32.92603344h-35.85692272Z"/><path class="cls-3" d="m659.02571231,151.92640369V59.69867142h34.99530908v92.22773228h-34.99530908Z"/><path class="cls-3" d="m718.84297643,151.92640369V59.69867142h32.40929907l1.72439637,18.61763537-7.41315076,2.06927564c1.26260887-4.36652233,3.53296666-8.24553735,6.8099043-11.63704505,3.27576856-3.38800046,7.21089953-6.06052256,11.80773107-8.01522814,4.59449337-1.9535365,9.48125732-2.93088929,14.65327734-2.93088929,6.89524731,0,12.75702588,1.43797121,17.58533571,4.3092373,4.82597167,2.87477334,8.47350839,7.09749854,10.94494834,12.67051379,2.47143995,5.57652249,3.70599084,12.3268036,3.70599084,20.25668873v56.88754392h-34.99530908v-53.95782372c0-2.52638682-.40216431-4.65411657-1.20649292-6.37851294-.80432861-1.72322729-2.01082153-3.04312118-3.61947875-3.96435802-1.61099539-.91889867-3.50724685-1.37951709-5.68875439-1.37951709-1.72322729,0-3.3061647.25836718-4.74179774.77627064-1.43797121.51673437-2.67018394,1.29300501-3.70599084,2.32647374-1.03346874,1.03463782-1.83779735,2.18501479-2.41298583,3.44879274-.57518848,1.26494703-.86278273,2.70174916-.86278273,4.3092373v54.81943736h-34.99414Z"/><path class="cls-3" d="m827.10350315,189.67957788l-13.27376025-27.06542395c5.86177857,0,10.31364391-.60324646,13.36027234-1.80973938,3.04429027-1.20649292,5.11122774-3.44762365,6.20548876-6.72339221,1.09192285-3.27459948,1.63905336-8.07251317,1.63905336-14.39374108V59.69867142h34.99297092v88.26337425c0,10.22713182-1.58059925,18.38615708-4.73945958,24.47824486-3.16353666,6.0909187-7.90299624,10.48666808-14.22305506,13.18841724-6.32239699,2.69824191-14.30722899,4.05087011-23.96151049,4.05087011Z"/><path class="cls-1" d="m685.05091467,16.54491546c-.80839014,1.40017279-2.59879887,1.87991136-3.99897166,1.07152123s-1.87991136-2.59879887-1.07152123-3.99897166c.34293552-.59398175.86698884-1.01023442,1.45862224-1.24486209l-4.915683-12.37260294-4.91545031,12.37209786c.13059784.05196287.26185585.10199612.38719457.17436047,1.40017279.80839014,1.87991136,2.59879887,1.07152123,3.99897166s-2.59879887,1.87991136-3.99897166,1.07152123c-1.06937141-.61740187-1.596265-1.80704215-1.42809669-2.95875707l-13.16529958-1.92812776,8.25245741,10.43742c.91333022-.72149549,2.20703572-.86001239,3.27640713-.24261052,1.40017279.80839014,1.87991136,2.59879887,1.07152123,3.99897166s-2.59879887,1.87991136-3.99897166,1.07152123c-.12533872-.07236434-.23429779-.16102049-.34459788-.2481401l-8.25682589,10.44295377,13.17320261-1.92926881c-.09274218-.62983463.00567731-1.29195089.34870217-1.88608738.80839014-1.40017279,2.59879887-1.87991136,3.99897166-1.07152123s1.87991136,2.59879887,1.07152123,3.99897166c-.34302486.59413649-.86722463,1.0104284-1.4590485,1.24502863l4.91577456,12.37294465,4.91545031-12.37209786c-.13062879-.05198074-.26185585-.10199612-.38719457-.17436047-1.40017279-.80839014-1.87991136-2.59879887-1.07152123-3.99897166s2.59879887-1.87991136,3.99897166-1.07152123c1.06937141.61740187,1.59629595,1.80706002,1.42809669,2.95875707l13.16529958,1.92812776-8.25245741-10.43742c-.91329927.72151336-2.20703572.86001239-3.27640713.24261052-1.40017279-.80839014-1.87991136-2.59879887-1.07152123-3.99897166s2.59879887-1.87991136,3.99897166-1.07152123c.12533872.07236434.23426684.16100262.34459788.2481401l8.25682589-10.44295377-13.17279901,1.92921299c.09262318.62968339-.00583555,1.29165321-.34877107,1.88563496Zm-4.30296752,11.35427208c-1.34704888,2.33315709-4.33046137,3.13256006-6.66364942,1.78549332-2.33315709-1.34704888-3.13256006-4.33046137-1.78551119-6.66361847s4.33046137-3.13256006,6.66361847-1.78551119c2.33318804,1.34706674,3.13259101,4.33047924,1.78554214,6.66363634Z"/><path class="cls-2" d="m854.86953093,37.30280671c-.80838854-1.40017371-.32864792-3.1905819,1.07152579-3.99897043s3.1905819-.32864792,3.99897043,1.07152579c.34293485.59398214.44139281,1.25595207.34876892,1.88563536l13.17282775,1.92921016-8.25681397-10.44296319c-.11030019.08711948-.21925936.1757755-.34459816.24813971-1.40017371.80838854-3.1905819.32864792-3.99897043-1.07152579-.80838854-1.40017371-.32864792-3.1905819,1.07152579-3.99897043,1.06937211-.61740065,2.36307745-.47888227,3.27640685.24261426l8.25246932-10.43741058-13.16530178,1.92811273c.168167,1.15171511-.35872796,2.34135479-1.42810007,2.95875544-1.40017371.80838854-3.1905819.32864792-3.99897043-1.07152579s-.32864792-3.1905819,1.07152579-3.99897043c.1253388-.0723642.25659687-.1223973.38719477-.17436003L851.41255533,0l-4.91581963,12.37295691c.59182361.23460091,1.1160229.65089341,1.45904708,1.24503029.80838854,1.40017371.32864792,3.1905819-1.07152579,3.99897043s-3.1905819.32864792-3.99897043-1.07152579c-.34302418-.59413688-.44144291-1.25625326-.34870001-1.88608778l-13.17316946-1.92930172,8.25681397,10.44296319c.11033114-.08713735.21925936-.1757755.34459816-.24813971,1.40017371-.80838854,3.1905819-.32864792,3.99897043,1.07152579s.32864792,3.1905819-1.07152579,3.99897043c-1.06937211.61740065-2.3631084.47890014-3.27640685-.24261426l-8.25246932,10.43741058,13.16530178-1.92811273c-.16819794-1.15169724.35872796-2.34135479,1.42810007-2.95875544,1.40017371-.80838854,3.1905819-.32864792,3.99897043,1.07152579.80838854,1.40017371.32864792,3.1905819-1.07152579,3.99897043-.1253388.0723642-.25656592.12237943-.38719477.17436003l4.91543618,12.37210347,4.91566617-12.37257946c-.59163313-.23462835-1.11568598-.65088161-1.45862082-1.24486376Zm-7.68159356-9.40362399c-1.34704621-2.33315863-.54763984-5.31657022,1.78554974-6.6636343,2.33315863-1.34704621,5.31657022-.54763984,6.66361643,1.78551879,1.34704621,2.33315863.54763984,5.31657022-1.78551879,6.66361643-2.33318958,1.34706408-5.31660117.54765771-6.66364738-1.78550093Z"/><path class="cls-3" d="m171.3535594,59.69867142v9.33629112c-1.47172846-1.68669346-3.0415137-3.28365986-4.82714075-4.68217455-2.64446413-2.06810656-5.68875439-3.67676378-9.13637805-4.82597167-3.44762365-1.1480388-7.24012658-1.72439637-11.37750878-1.72439637-7.92988513,0-14.91164453,2.04121767-20.94527819,6.12014576-6.03363367,4.08009717-10.74737343,9.71273561-14.13537389,16.893239-3.3915077,7.18401063-5.08550793,15.48800209-5.08550793,24.9108053,0,9.30823314,1.72322729,17.55610865,5.17085094,24.73778112,3.44762365,7.18284155,8.15902526,12.81547999,14.13654297,16.893239,5.97401047,4.08126625,12.81314183,6.12014576,20.51388683,6.12014576,4.1373822,0,7.92988513-.60324646,11.37750878-1.80973938s6.55036804-2.8443772,9.30940223-4.91365284c1.49160286-1.11851947,2.8642516-2.36505346,4.1373822-3.71914301v8.89116304h35.16716418V59.69867142h-34.30555053Zm-12.59379277,48.47658143c1.06941802.61742158,2.3631537.47903147,3.2763531-.24258457l8.25255184,10.43742049-13.16532787-1.92810896c.16820171-1.15169218-.35876213-2.34137954-1.42818014-2.95880112-1.40012217-.80827426-3.19057169-.32865826-3.99884595,1.07161005-.8084204,1.40012217-.32865826,3.19057169,1.07146391,3.99899209.12538407.07233697.25661356.12231523.38725851.1743394l-4.9155526,12.37210554-4.91569873-12.37298235c.59184791-.23454713,1.11603518-.65088656,1.45901469-1.24507263.8084204-1.40012217.32865826-3.19057169-1.07146391-3.99899209-1.40026831-.80827426-3.19071782-.32865826-3.99899209,1.07161005-.34312565.59403994-.4414747,1.25617891-.34867879,1.88602199l-13.17321917,1.92927804,8.25678976-10.44297363c.11033214.08709663.21920293.17580075.344587.24813771,1.40012217.8084204,3.19057169.32865826,3.99899209-1.07146391s.32865826-3.19057169-1.07161005-3.99899209c-1.06927188-.61742158-2.36300757-.47888533-3.2763531.24258457l-8.25240571-10.43742049,13.16532787,1.92810896c-.16820171,1.15183832.35861599,2.34137954,1.42803401,2.95880112,1.40012217.8084204,3.19057169.32865826,3.99899209-1.07146391.8084204-1.40026831.32865826-3.19057169-1.07161005-3.99899209-.12523794-.07233697-.25646743-.12246137-.38711237-.1743394l4.91540646-12.37210554,4.91569873,12.37254394c-.59170177.23469327-1.1157429.65088656-1.45857628,1.2449265-.8084204,1.40012217-.32865826,3.19057169,1.07146391,3.99899209,1.40012217.80827426,3.19057169.32865826,3.99899209-1.07161005.34297951-.5938938.44132856-1.25588664.34882493-1.88558359l13.17278077-1.92927804-8.2569359,10.44297363c-.11033214-.08709663-.21920293-.17580075-.344587-.24813771-1.40012217-.8084204-3.19057169-.32865826-3.99884595,1.07161005-.8084204,1.40012217-.32865826,3.19057169,1.07146391,3.99884595Z"/><path class="cls-3" d="m150.67848535,101.41547295c-2.33304983-1.34707506-5.31654782-.54756891-6.66362288,1.78548092-1.34692893,2.33319597-.54756891,5.31654782,1.78562705,6.66362288s5.31654782.54771505,6.66362288-1.78548092.54756891-5.31654782-1.78562705-6.66362288Z"/></svg>